<svg id="Layer_1" data-name="Layer 1" xmlns="http://www.w3.org/2000/svg" viewBox="0 0 601.51 199.58"><defs><style>.cls-1,.cls-2{fill:#f4ea16;}.cls-2{fill-rule:evenodd;}</style></defs><title>logo_completa</title><path class="cls-1" d="M289.56,153.63c0-3.57,0-7.32,0-11.12,0-17.91,0-39.12-1.24-55.65-.27-3.28.7-7.3-1.85-9.9-8.69-1.82-21.63.6-30.31-1.24-1.65-8.83.39-21.37-1.22-30.29-3.92.21-8.77-.51-11.76.62-1.59,38.89,1.26,78.69.62,118.7,14.59-.66,31.94,1.42,44.52-1.24C290.22,160.69,289.5,157.05,289.56,153.63Zm-14.24-9.28H257.39c-1.4-14,0-30.89-1.23-45.13A3.2,3.2,0,0,1,258,97.36h16.72C275.26,112.28,276.56,129.72,275.32,144.35Z"/><path class="cls-1" d="M541.8,82.53c-.21-3.51.84-7.39-1.24-10.5-15.6-1.9-28.83.57-44.51,0-.45,7.45.66,13.35.62,20.38H528.8c0,5.22,2.14,13.35-.6,17.31-4.71-.43-9,.42-14.24.62-4.89.21-11.55-1.54-14.83,1.24-2.66,2.29-1.86,11.18-1.86,17.33,0,6.73.43,14,.62,18.53s-.87,10.25,1.86,12.36c13.06.7,29.65-.44,43.9-.6C542.33,135.14,543.2,106.09,541.8,82.53Zm-11.75,55.65c-4.56,1.69-13.84,1.73-19.16.61V125.18c4.15-.79,12.75-.73,16.69-1.24.52-.06.58.21.62.64C531.83,125.65,529.27,133.78,530.05,138.18Z"/><path class="cls-1" d="M474.41,72a168.6,168.6,0,0,0-20.41.6c-8,.72-16.71-1.47-23.5,1.23-2.08,4.44-1.23,9.81-1.23,14.84,0,19.74.76,42.23,1.85,60.6,9.1,1.83,22.45-.58,31.53,1.23-.37,6.21.78,14-.62,19.17-10.17-.08-19.11,1.08-29.67.62A72.74,72.74,0,0,0,437.31,187c12-1.46,29.32.68,38.34-1.85C476.58,148.57,474.66,109.47,474.41,72ZM462,132c-7.88-.38-10.92.74-17.91.61-.95-13.1-2.1-29.19-.64-42.64,5.59-.21,12.07.51,16.71-.62,2.07,2.56,1.16,6,1.24,9.26C461.64,109.23,462.24,121.05,462,132Z"/><path class="cls-2" d="M411.33,73.86c2.93,6.19,1.86,13.72,1.86,21,0,20.88,1.34,44.83,1.24,66.77-3.18-.93-8.75.59-13.6,0-.76-21.69-1.09-43.85-1.24-66.15-3.09-2.21-13.2-1.38-17.92-.62-.71,20.92.08,45.66.61,67.38H368.07c0-29.69-.81-58.53-1.24-87.77C380.84,73.8,398.44,73.64,411.33,73.86Z"/><path class="cls-1" d="M353.23,112.2c-.24-6.48,0-12.84,0-19.15,0-6,.89-12.61-1.85-17.93-13.42-.78-30.19.25-44.53.6.1,6.93,1,13,.62,20.41,10.81.49,23.19-.72,32.17,0,.78,4.39,1.59,13.88-.62,17.31-4.93.16-9.91-.21-14.86,0-5.18.22-10.79.27-14.83,1.85-1.82,3.45-1.24,7.8-1.24,12.36,0,6.69.41,14.65.64,19.79.22,5.69-.93,11,1.22,15.45,14.05,1.47,30.47,0,44.52-.62C353.81,146,353.87,129.1,353.23,112.2Zm-13,30.31c-6.48-.87-12.65,1.67-17.94,0a34.41,34.41,0,0,1,0-14.22,52.46,52.46,0,0,1,17.94,0A33.11,33.11,0,0,1,340.24,142.51Z"/><path class="cls-1" d="M137.15,173.82c0,.66.27,1.3.32,1.94s-.06,1.54,0,2.25.25,1.28.32,1.94a36.72,36.72,0,0,0,1.45,7.41c.75,2.23,1.75,4.38,3.55,5.32,3.91-1.92,4.32-7.13,4.68-12.41s-3-56.15-3-62.63-.35-12.83,1.25-18.25c0-.84.47.09.62.16a15.23,15.23,0,0,1,3.12,2.34c1,.89,2.05,1.81,3.12,2.81,0,0,.3.13.31.15s0,.26,0,.31.5.2.63.32,0,.21.15.31a36.76,36.76,0,0,1,2.65,2.65c2.2,2.19,4.57,4.41,6.86,6.7.1.1.22,0,.31.16.34.39.94,1,1.41,1.55a42.84,42.84,0,0,0,5.93,5.78c.21.15.41.18.62.31.06,0,.1.29.15.31.23.11.5.32.78.47s.41,0,.63.16c.07,0,.1.28.15.31s.23,0,.31,0a9,9,0,0,0,1.41.62,10.49,10.49,0,0,0,6.08-.62,3.28,3.28,0,0,0-.47-1.41c-.09-.17-.35-.26-.47-.47s0-.41-.15-.62c-.23-.38-.54-.68-.78-1.09-.94-1.54-2-3.23-3.12-4.83,0-.06-.29-.11-.32-.16a3.34,3.34,0,0,0-.46-.78c-.76-1-1.74-2.3-2.65-3.43-.43-.53-.79-1-1.25-1.56-.24-.31-.47-.53-.78-.94s-.47-.57-.78-.93c0,0-.29-.12-.31-.16a5.48,5.48,0,0,0-.94-1.24c-.75-.85-1.63-1.86-2.49-2.81-1.1-1.2-2.32-2.39-3.43-3.59-.31-.32-.48-.76-.78-1.09s-.67-.48-.94-.77-.14-.42-.31-.63-.84-.81-1.25-1.25c-1-1-2-2.06-3-3.27s-2.54-2.83-3.74-4.21-2.19-2.51-3.27-3.74c-2.18-2.47-4.35-4.93-6.71-7.33-.46-.47-.92-.86-1.41-1.41l-3.74-4.21c-.4-.46-.82-.85-1.25-1.4s-.8-.9-1.24-1.41c-.73-.81-1.63-1.76-2.5-2.64-.56-.59-1.26-1.13-1.87-1.72a13.55,13.55,0,0,0-2-1.87c-.86-.57-1.82-1-2.8-1.56-.15-.08-.35-.24-.47-.31-.38-.21-.76-.24-1.09-.47a16.77,16.77,0,0,1-1.4-1.4,31.2,31.2,0,0,1-2.66-2.81c-.2-.26-.43-.56-.62-.78s-.46-.61-.78-.94l-.15-.15c-.08-.11-.07-.36-.16-.47a14,14,0,0,1-1.09-1.09,22.68,22.68,0,0,0-3.43-3.9c-.13-.11-.35-.05-.47-.16s-.08-.25-.16-.31-.33,0-.46-.16-.09-.25-.16-.31A21.64,21.64,0,0,0,109,46.53,4.93,4.93,0,0,0,109,44c-.64-1.61-3.37-1.58-4.36-2.81a11.17,11.17,0,0,0-1.25,1.4c-.09.11-.24.22-.31.32s-.07.36-.16.46-.26,0-.31,0,0,.26,0,.32-.26-.06-.31,0,0,.25,0,.31-.36.05-.47.16-.35.54-.62.78-.48.18-.63.31-.31.34-.46.47c-2,1.61-4.33,3.24-5.78,5.61a10.9,10.9,0,0,0-1.55,4.52,10.5,10.5,0,0,1-.16,2c-.19.54-1.31,1.26-2.18,2a37.81,37.81,0,0,0-3.74,3.75c-1.3,1.46-2.87,3.31-4.22,5-.61.77-1.28,1.57-1.87,2.35-1.58,2.11-2.9,4-4.36,6.07-.16.22-.34.43-.47.63l-.62.94c-.1.14-.3.36-.47.62s-.76.94-1.09,1.4c-1.15,1.58-2.23,3.29-3.43,4.84a49.8,49.8,0,0,1-4.06,4.36,23.43,23.43,0,0,0-3.9,4.37c-.35.62-.6,1.42-.93,2.18a18.74,18.74,0,0,1-.94,2.19,19.58,19.58,0,0,1-1.71,2c-.46.55-.91,1.16-1.4,1.72a62.49,62.49,0,0,0-5.93,6.86,11.61,11.61,0,0,0-2,4.36,5.76,5.76,0,0,0,1.25,4.68,4.29,4.29,0,0,0,2,1.72,5.26,5.26,0,0,0,2.64-.78,8.6,8.6,0,0,0,2-1.25,11.21,11.21,0,0,0,.78-.93c.22-.27.58-.5.78-.79s.06-.32.15-.46c1-1.55,1.83-3.64,2.8-5.47a44.2,44.2,0,0,1,5.15-7.17c.72-.84,1.84-1.91,2.66-2.8.2-.22.26-.56.46-.78.39-.43,1-.84,1.41-1.4.27-.35.8-1,1.24-1.4.29-.31.51-1,1.09-.79,1.34,6,1.41,13,1.41,20.27s-1.1,47.92-1.1,47.92c-.14,5.95-.56,11.83.64,17.73a24.06,24.06,0,0,0,.65,2.9c.25.75.64,1.39.81,1.94.26.85.38,1.32.64,2.09.54,1.62,1.15,2.86,2.9,2.74a1.75,1.75,0,0,0,1.62-1A8.14,8.14,0,0,0,82.48,189a13.11,13.11,0,0,0,.48-1.46c2.41-6.49,3.17-49.33,3.42-58.34a84,84,0,0,0-.16-11,25.88,25.88,0,0,0-.77-4.8,67.15,67.15,0,0,1-2-10,8.51,8.51,0,0,1,1.55-3.87c.11-.17.19-.42.31-.62s.29-.1.31-.15a3.83,3.83,0,0,1,.47-.78c1.57-2.15,9.57-13.1,10.06-13.79.13-.17,3.24-4.3,4.65-6a39.73,39.73,0,0,1,4.34-4.64c.47-.43,1.5-1.53,1.55-1.55a8.33,8.33,0,0,0,1.24-.78c.12-.09,0-.4.46-.31a35.89,35.89,0,0,1,6,4,8.17,8.17,0,0,1,.93.93c.41.47,1.58,2.19,1.7,2.32S128.5,94.67,132,98.54c1.58,1.76,3.07,3.49,4.49,5.27C130.6,115.4,136.94,170.44,137.15,173.82Z"/><path class="cls-2" d="M58.75,23.3c.52,0,1.25-.12,1.55.15.32,1,1.54,1.57,2.32,2.33.46.45,1,.89,1.55,1.39,2.82,2.37,6.4,4.7,9.14,7.44a31.35,31.35,0,0,1,2.79,3.25c.34.47.55.87.93,1.4,0,.05.29.11.31.15.28.63.7,1.43,1.08,2.17a20.43,20.43,0,0,1,1.7,4.34c.21.82.33,1.7.47,2.63A10.1,10.1,0,0,1,80.74,51a11.19,11.19,0,0,1-1.7-1.4c-.28-.23-.65-.37-.93-.61s-.38-.57-.62-.78-.66-.37-.93-.62-.66-.73-1.09-1.08-.69-.73-1.08-1.08c-.55-.52-1.18-.91-1.7-1.4s-1.3-1.23-1.86-1.86c-1-1.15-2.46-2.55-3.56-3.87,0,0-.29-.12-.31-.16-.27-.58-.81-.84-1.25-1.39-.25-.34-.56-.82-.92-1.24-.83-1-1.8-2.1-2.64-3.26a21.16,21.16,0,0,1-2.63-4.64,6.08,6.08,0,0,1-.62-2c0-.09.15-.19.16-.15,0-.18-.18-.08-.16,0a5.19,5.19,0,0,1-.15-1.09C58.72,24,58.56,23.64,58.75,23.3Z"/><path class="cls-2" d="M107.85,32.13c-1.76-8.17-.53-17.69.46-25.87.1-.74.24-1.1.31-1.86,0,0,.19,0,.16-.15s-.18,0-.16-.16c0-.34.26-.76.31-1.08.13-.67.25-1.25.31-1.86.24-.71,1.25-.09,1.55-.93.13,0,.15.06.16.16s.14.06.15.15A12,12,0,0,1,111.57,3c0,.18.27.42.31.62.1.56.06,1.21.15,1.86.37,2.57.91,5.87,1.09,9,0,.77,0,1.59,0,2.32a52.9,52.9,0,0,1-.62,7.28,17.68,17.68,0,0,1-2.17,5.74,7.77,7.77,0,0,1-1.24,1.39C108.78,31.51,108.47,32.3,107.85,32.13Z"/><path class="cls-2" d="M151.53,25.16c.37.05-.17.42-.3.46.29.26.4-.29.61-.46s.34-.06.47-.16.3-.61.62-.77a.26.26,0,0,0,.31,0c.28-.23.31-.54.62-.62a5,5,0,0,1,3.71.62A38.61,38.61,0,0,1,152,30.89c-.08.08-.25.23-.31.31s-.07.38-.16.47-.26-.05-.3,0,.05.27,0,.3-.35,0-.47.16c-1.63,1.61-3.23,3-5.11,4.65-.82.7-1.58,1.54-2.48,2.32-.36.31-.86.62-1.39,1.09s-.8.85-1.24,1.24-1,.7-1.4,1.08-.92,1-1.24,1.08c-1.31.37-3.91-.06-5.42,0a11.66,11.66,0,0,1-2.48.16c-.12-.68.56-1,.93-1.4A42.43,42.43,0,0,1,134,39.1c.21-.18.55-.26.77-.46s.4-.59.62-.78c.41-.36.9-.69,1.4-1.08.11-.09.21-.23.31-.31s.34-.06.46-.15.18-.37.31-.47c.29-.22.7-.47,1.08-.78.79-.62,1.62-1.35,2.49-2,.45-.35,1.26-.78,1.85-1.24s.91-.87,1.4-1.24c.27-.2.51-.27.77-.46s.38-.43.62-.62c.91-.71,2-1.44,2.94-2.17.24-.18.39-.46.62-.62s.34-.05.47-.15.27-.44.62-.63c-.08.05.09.22.16.16s-.06-.26,0-.31C151.14,25.58,151.44,25.47,151.53,25.16Z"/><path class="cls-2" d="M63.39,73.18a3.67,3.67,0,0,1-2.94.93,8.57,8.57,0,0,1-2.79-1.39,5.73,5.73,0,0,0-1.39-.78c-.14,0-.38-.28-.47-.31-.47-.14-1,0-1.39-.16a13,13,0,0,1-2.33-1.85,34,34,0,0,0-3.56-2.79c-.22-.14-.54-.17-.78-.31s-.3-.37-.46-.46-.57-.18-.77-.31-.28-.36-.47-.47-.56-.19-.77-.31c-.51-.29-1.21-.86-1.86-1.24-.26-.15-.51-.14-.77-.31s-.29-.35-.47-.46-.57-.19-.77-.32-.17-.21-.31-.3a29.84,29.84,0,0,1-3.72-3,8.12,8.12,0,0,1-1.55-1.55c0-.05-.36-.32-.15-.46a18.3,18.3,0,0,1,6.35,0c.24,0,.48.25.77.31a14.43,14.43,0,0,1,1.7.31A20.62,20.62,0,0,1,51,61.56c.26.22.62.33.93.62.06.07.08.26.15.31s.47.18.62.31c.72.64,1.36,1.4,2,2s1,1.07,1.55,1.55c.19.15.43.13.61.3,1.09,1,1.87,2.13,2.95,3.1,0,0,.16.31.16.31s.19-.22.31-.15a9.32,9.32,0,0,1,.77.77c0,.08-.25.44.15.46.06,0,.25-.21.31-.15s-.14.32,0,.46.28-.22.31-.15-.18.33.16.62c.07.06.17-.22,0-.15.1,0,.36-.05.62.3,0-.06-.14.37.15.32C62.93,72.72,63.46,72.65,63.39,73.18Z"/><path class="cls-2" d="M185.15,58.93a9.89,9.89,0,0,1-2.33,2.63,19.72,19.72,0,0,1-2.78,2c-.17.09-.32.06-.47.15l-.77.47c-.74.42-1.94.94-3,1.39-.57.26-1.38.57-2.17.93-.28.13-.44,0-.92.15-.09,0-.26.3-.32.31-.36.11-.72,0-1.08.16s-.48.37-.77.47-.77,0-1.09.15c-1.21.37-2.37.88-3.56,1.24-2.52.75-5.05,1.33-7.44,2.16a8,8,0,0,1,1.24-2.94c.07-.1.25-.21.31-.31a9.71,9.71,0,0,1,2.64-2.63c.43-.29,1-.75,1.55-1.08a12.86,12.86,0,0,1,1.23-.62A20.34,20.34,0,0,1,168,62.49c1.3-.42,2.71-.74,4.19-1.08.51-.13,1-.2,1.54-.31.19,0,.43-.28.62-.31,1.23-.2,2.47-.39,3.72-.62,1-.18,2-.51,2.95-.62.4,0,.83.06,1.23,0s0-.21.31-.31.29.15.47.15c.39,0,.29-.32.62-.31,0,0,.15.2.31.16s0-.25.15-.31C184,59,185,59.19,185.15,58.93Z"/><path class="cls-2" d="M44.65,101.07c-5.36-1.59-11.9-2-18-2.95-1.19-.18-2.45-.5-3.87-.77-.37-.07-.69-.06-1.08-.16l-1.87-.46A13.07,13.07,0,0,1,17.69,96c-.49-.22-1.3-.43-2-.77-.42-.21-1.11-.33-1.24-.93-.3.45-.2-.21-.46-.16s-.28,0-.78-.31c-.23-1-.54-.94-.46-2.16a1.09,1.09,0,0,1,.46-.32,32.09,32.09,0,0,0,6.82.78c1.21.06,2.45.08,3.72.16C30.49,92.63,38,93,42,96.42a10,10,0,0,1,1.39,1.23c.12.17.16.67.31.93s.33.29.46.62C44.42,99.81,44.44,100.47,44.65,101.07Z"/><path class="cls-2" d="M209.93,95.8c-.09.78-1.17,1.21-1.86,1.55a22.73,22.73,0,0,1-5.26,1.54c-1.74.37-3.75.82-5.73,1.09-1,.14-2.06.2-3.1.31a42.32,42.32,0,0,1-6.2.47c-3.77-.22-7.58-1.58-8.83-4.65a70,70,0,0,0,11.62-.93,101.48,101.48,0,0,1,10.22-.93,31.1,31.1,0,0,1,3.87,0c.3,0,.56.23.94.31s.29-.16.93,0a1.91,1.91,0,0,1,.46.15s.46.34.62.31,0-.2.16-.15.12.25.3.31.43-.05.62,0,.21.27.31.31.45-.08.62,0S209.66,96,209.93,95.8Z"/></svg>