<svg id="Layer_1" data-name="Layer 1" xmlns="http://www.w3.org/2000/svg" viewBox="0 0 394.35 199.58"><defs><style>.cls-1,.cls-2{fill:#f4ea16;}.cls-2{fill-rule:evenodd;}</style></defs><title>logo2_1</title><path class="cls-1" d="M91.91,137.22c0-3.57,0-7.33,0-11.13,0-17.9,0-39.11-1.24-55.64-.27-3.28.7-7.31-1.85-9.9-8.69-1.82-21.63.6-30.31-1.24-1.66-8.83.39-21.38-1.22-30.29-3.92.2-8.77-.52-11.76.62-1.59,38.89,1.26,78.69.62,118.7,14.58-.66,31.94,1.42,44.52-1.24C92.57,144.27,91.85,140.64,91.91,137.22Zm-14.24-9.29H59.74c-1.4-14,0-30.88-1.23-45.12A3.15,3.15,0,0,1,60.36,81H77.08C77.61,95.87,78.91,113.3,77.67,127.93Z"/><path class="cls-1" d="M344.15,66.12c-.21-3.51.84-7.39-1.24-10.51-15.6-1.89-28.83.58-44.51,0C298,63.06,299.06,69,299,76h32.13c0,5.22,2.14,13.35-.6,17.31-4.71-.43-9,.41-14.24.62-4.89.21-11.55-1.55-14.83,1.24-2.66,2.29-1.86,11.18-1.86,17.33,0,6.73.43,14,.62,18.53s-.87,10.25,1.86,12.36c13.06.7,29.65-.44,43.9-.6C344.68,118.73,345.55,89.68,344.15,66.12ZM332.4,121.76c-4.56,1.7-13.84,1.74-19.16.62V108.77c4.14-.79,12.75-.73,16.69-1.24.51-.06.58.2.62.64C334.18,109.24,331.62,117.37,332.4,121.76Z"/><path class="cls-1" d="M276.76,55.61a170.6,170.6,0,0,0-20.41.6c-8,.72-16.71-1.46-23.5,1.24-2.08,4.44-1.24,9.8-1.24,14.84,0,19.74.77,42.23,1.86,60.59,9.1,1.84,22.45-.58,31.53,1.24-.37,6.21.78,14-.62,19.17-10.17-.08-19.11,1.07-29.67.62a72.74,72.74,0,0,0,4.95,16.69c12-1.46,29.32.68,38.34-1.85C278.93,132.16,277,93.06,276.76,55.61Zm-12.38,60c-7.88-.37-10.92.75-17.91.62-.95-13.1-2.11-29.19-.64-42.65,5.59-.2,12.07.52,16.71-.61,2.07,2.56,1.16,6,1.24,9.26C264,92.81,264.59,104.64,264.38,115.57Z"/><path class="cls-2" d="M213.68,57.45c2.93,6.19,1.86,13.72,1.86,21,0,20.89,1.34,44.84,1.24,66.77-3.18-.93-8.75.6-13.6,0-.76-21.68-1.09-43.84-1.24-66.14-3.09-2.21-13.2-1.39-17.92-.63-.71,20.93.08,45.67.61,67.39H170.42c0-29.69-.81-58.53-1.24-87.77C183.19,57.39,200.79,57.22,213.68,57.45Z"/><path class="cls-1" d="M155.58,95.79c-.25-6.48,0-12.84,0-19.15,0-6,.89-12.61-1.85-17.93-13.42-.79-30.19.25-44.53.6.1,6.93,1,13,.62,20.4,10.81.5,23.19-.72,32.16,0,.79,4.4,1.59,13.89-.61,17.32-4.94.16-9.91-.21-14.86,0-5.18.22-10.79.26-14.84,1.85-1.81,3.45-1.23,7.8-1.23,12.36,0,6.69.41,14.65.64,19.79.22,5.69-.93,11,1.22,15.45,14,1.47,30.47,0,44.52-.62C156.16,129.54,156.22,112.68,155.58,95.79Zm-13,30.3c-6.47-.86-12.65,1.68-17.93,0a34.37,34.37,0,0,1,0-14.21,52.41,52.41,0,0,1,17.93,0A33.06,33.06,0,0,1,142.58,126.09Z"/></svg>